<mxfile host="Electron" modified="2023-10-14T09:53:18.027Z" agent="Mozilla/5.0 (Macintosh; Intel Mac OS X 10_15_7) AppleWebKit/537.36 (KHTML, like Gecko) draw.io/22.0.2 Chrome/114.0.5735.289 Electron/25.8.4 Safari/537.36" etag="P3hnBu25Z21kpCyx1HDf" version="22.0.2" type="device">
  <diagram id="2yLUdcKigUDdAbn4NO9e" name="Seite-1">
    <mxGraphModel dx="1434" dy="854" grid="1" gridSize="10" guides="1" tooltips="1" connect="1" arrows="1" fold="1" page="0" pageScale="1" pageWidth="827" pageHeight="1169" math="0" shadow="0">
      <root>
        <mxCell id="0" />
        <mxCell id="1" parent="0" />
        <mxCell id="ZWeK69lGU3FncU__IQtJ-7" style="edgeStyle=orthogonalEdgeStyle;rounded=0;orthogonalLoop=1;jettySize=auto;html=1;" edge="1" parent="1" source="ximNqhCb3YHvlV8e_dy4-2" target="ZWeK69lGU3FncU__IQtJ-3">
          <mxGeometry relative="1" as="geometry" />
        </mxCell>
        <mxCell id="ZWeK69lGU3FncU__IQtJ-37" value="read / write" style="edgeLabel;html=1;align=center;verticalAlign=middle;resizable=0;points=[];" vertex="1" connectable="0" parent="ZWeK69lGU3FncU__IQtJ-7">
          <mxGeometry x="-0.08" y="3" relative="1" as="geometry">
            <mxPoint as="offset" />
          </mxGeometry>
        </mxCell>
        <mxCell id="ximNqhCb3YHvlV8e_dy4-2" value="Authentication Service" style="rounded=0;whiteSpace=wrap;html=1;fillColor=#f8cecc;strokeColor=#b85450;fontColor=#000000;" parent="1" vertex="1">
          <mxGeometry x="290" y="470" width="120" height="60" as="geometry" />
        </mxCell>
        <mxCell id="ZWeK69lGU3FncU__IQtJ-24" style="edgeStyle=orthogonalEdgeStyle;rounded=0;orthogonalLoop=1;jettySize=auto;html=1;" edge="1" parent="1" source="ximNqhCb3YHvlV8e_dy4-3" target="ZWeK69lGU3FncU__IQtJ-23">
          <mxGeometry relative="1" as="geometry" />
        </mxCell>
        <mxCell id="ximNqhCb3YHvlV8e_dy4-3" value="Kogito Process Engine" style="rounded=0;whiteSpace=wrap;html=1;fillColor=#dae8fc;strokeColor=#6c8ebf;fontColor=#000000;" parent="1" vertex="1">
          <mxGeometry x="880" y="320" width="120" height="60" as="geometry" />
        </mxCell>
        <mxCell id="ZWeK69lGU3FncU__IQtJ-1" style="edgeStyle=orthogonalEdgeStyle;rounded=0;orthogonalLoop=1;jettySize=auto;html=1;" edge="1" parent="1" source="ximNqhCb3YHvlV8e_dy4-4" target="ximNqhCb3YHvlV8e_dy4-2">
          <mxGeometry relative="1" as="geometry" />
        </mxCell>
        <mxCell id="ZWeK69lGU3FncU__IQtJ-35" value="user / management" style="edgeLabel;html=1;align=center;verticalAlign=middle;resizable=0;points=[];" vertex="1" connectable="0" parent="ZWeK69lGU3FncU__IQtJ-1">
          <mxGeometry y="-1" relative="1" as="geometry">
            <mxPoint as="offset" />
          </mxGeometry>
        </mxCell>
        <mxCell id="ZWeK69lGU3FncU__IQtJ-15" value="" style="edgeStyle=orthogonalEdgeStyle;rounded=0;orthogonalLoop=1;jettySize=auto;html=1;" edge="1" parent="1" source="ximNqhCb3YHvlV8e_dy4-4" target="ZWeK69lGU3FncU__IQtJ-16">
          <mxGeometry relative="1" as="geometry">
            <mxPoint x="530" y="470" as="targetPoint" />
            <Array as="points">
              <mxPoint x="530" y="370" />
            </Array>
          </mxGeometry>
        </mxCell>
        <mxCell id="ZWeK69lGU3FncU__IQtJ-26" value="user" style="edgeLabel;html=1;align=center;verticalAlign=middle;resizable=0;points=[];" vertex="1" connectable="0" parent="ZWeK69lGU3FncU__IQtJ-15">
          <mxGeometry x="-0.5" y="-1" relative="1" as="geometry">
            <mxPoint as="offset" />
          </mxGeometry>
        </mxCell>
        <mxCell id="ZWeK69lGU3FncU__IQtJ-17" style="edgeStyle=orthogonalEdgeStyle;rounded=0;orthogonalLoop=1;jettySize=auto;html=1;" edge="1" parent="1" source="ximNqhCb3YHvlV8e_dy4-4" target="ximNqhCb3YHvlV8e_dy4-8">
          <mxGeometry relative="1" as="geometry" />
        </mxCell>
        <mxCell id="ZWeK69lGU3FncU__IQtJ-27" value="management" style="edgeLabel;html=1;align=center;verticalAlign=middle;resizable=0;points=[];" vertex="1" connectable="0" parent="ZWeK69lGU3FncU__IQtJ-17">
          <mxGeometry x="0.0357" y="-1" relative="1" as="geometry">
            <mxPoint as="offset" />
          </mxGeometry>
        </mxCell>
        <mxCell id="ZWeK69lGU3FncU__IQtJ-30" style="edgeStyle=orthogonalEdgeStyle;rounded=0;orthogonalLoop=1;jettySize=auto;html=1;entryX=0;entryY=0.5;entryDx=0;entryDy=0;" edge="1" parent="1" source="ximNqhCb3YHvlV8e_dy4-4" target="ZWeK69lGU3FncU__IQtJ-25">
          <mxGeometry relative="1" as="geometry">
            <Array as="points">
              <mxPoint x="350" y="200" />
            </Array>
          </mxGeometry>
        </mxCell>
        <mxCell id="ZWeK69lGU3FncU__IQtJ-31" value="user / management" style="edgeLabel;html=1;align=center;verticalAlign=middle;resizable=0;points=[];" vertex="1" connectable="0" parent="ZWeK69lGU3FncU__IQtJ-30">
          <mxGeometry x="-0.3" y="1" relative="1" as="geometry">
            <mxPoint x="1" y="-6" as="offset" />
          </mxGeometry>
        </mxCell>
        <mxCell id="ximNqhCb3YHvlV8e_dy4-4" value="User Interface Frontend" style="rounded=0;whiteSpace=wrap;html=1;fillColor=#d5e8d4;strokeColor=#82b366;fontColor=#000000;" parent="1" vertex="1">
          <mxGeometry x="290" y="320" width="120" height="60" as="geometry" />
        </mxCell>
        <mxCell id="ZWeK69lGU3FncU__IQtJ-18" style="edgeStyle=orthogonalEdgeStyle;rounded=0;orthogonalLoop=1;jettySize=auto;html=1;" edge="1" parent="1" source="ximNqhCb3YHvlV8e_dy4-8" target="ximNqhCb3YHvlV8e_dy4-3">
          <mxGeometry relative="1" as="geometry">
            <Array as="points">
              <mxPoint x="840" y="360" />
              <mxPoint x="840" y="360" />
            </Array>
          </mxGeometry>
        </mxCell>
        <mxCell id="ZWeK69lGU3FncU__IQtJ-21" style="edgeStyle=orthogonalEdgeStyle;rounded=0;orthogonalLoop=1;jettySize=auto;html=1;" edge="1" parent="1" source="ximNqhCb3YHvlV8e_dy4-8" target="ZWeK69lGU3FncU__IQtJ-20">
          <mxGeometry relative="1" as="geometry" />
        </mxCell>
        <mxCell id="ZWeK69lGU3FncU__IQtJ-36" value="read / write" style="edgeLabel;html=1;align=center;verticalAlign=middle;resizable=0;points=[];" vertex="1" connectable="0" parent="ZWeK69lGU3FncU__IQtJ-21">
          <mxGeometry x="-0.2857" y="-1" relative="1" as="geometry">
            <mxPoint as="offset" />
          </mxGeometry>
        </mxCell>
        <mxCell id="ZWeK69lGU3FncU__IQtJ-33" value="read" style="edgeStyle=orthogonalEdgeStyle;rounded=0;orthogonalLoop=1;jettySize=auto;html=1;" edge="1" parent="1" source="ximNqhCb3YHvlV8e_dy4-8" target="ZWeK69lGU3FncU__IQtJ-2">
          <mxGeometry relative="1" as="geometry" />
        </mxCell>
        <mxCell id="ZWeK69lGU3FncU__IQtJ-40" style="edgeStyle=orthogonalEdgeStyle;rounded=0;orthogonalLoop=1;jettySize=auto;html=1;" edge="1" parent="1" source="ximNqhCb3YHvlV8e_dy4-8" target="ZWeK69lGU3FncU__IQtJ-39">
          <mxGeometry relative="1" as="geometry">
            <Array as="points">
              <mxPoint x="820" y="350" />
              <mxPoint x="820" y="210" />
            </Array>
          </mxGeometry>
        </mxCell>
        <mxCell id="ximNqhCb3YHvlV8e_dy4-8" value="Analytics Backend Service" style="rounded=0;whiteSpace=wrap;html=1;fillColor=#f8cecc;strokeColor=#b85450;fontColor=#000000;" parent="1" vertex="1">
          <mxGeometry x="690" y="320" width="120" height="60" as="geometry" />
        </mxCell>
        <mxCell id="ZWeK69lGU3FncU__IQtJ-2" value="DB" style="shape=cylinder3;whiteSpace=wrap;html=1;boundedLbl=1;backgroundOutline=1;size=15;" vertex="1" parent="1">
          <mxGeometry x="720" y="460" width="60" height="80" as="geometry" />
        </mxCell>
        <mxCell id="ZWeK69lGU3FncU__IQtJ-3" value="DB" style="shape=cylinder3;whiteSpace=wrap;html=1;boundedLbl=1;backgroundOutline=1;size=15;" vertex="1" parent="1">
          <mxGeometry x="320" y="580" width="60" height="80" as="geometry" />
        </mxCell>
        <mxCell id="ZWeK69lGU3FncU__IQtJ-4" value="nodejs express" style="shape=note;whiteSpace=wrap;html=1;backgroundOutline=1;darkOpacity=0.05;" vertex="1" parent="1">
          <mxGeometry x="130" y="370" width="80" height="100" as="geometry" />
        </mxCell>
        <mxCell id="ZWeK69lGU3FncU__IQtJ-9" value="&lt;h1&gt;&lt;span style=&quot;background-color: initial;&quot;&gt;RedeRede Auto&lt;/span&gt;&lt;/h1&gt;&lt;div&gt;&lt;span style=&quot;background-color: initial;&quot;&gt;Eine Webanwendung fÃ¼r die private Buchung von Fahrten. Managementansicht zur Auswertung.&lt;/span&gt;&lt;/div&gt;" style="text;html=1;strokeColor=none;fillColor=none;spacing=5;spacingTop=-20;whiteSpace=wrap;overflow=hidden;rounded=0;" vertex="1" parent="1">
          <mxGeometry x="20" y="10" width="190" height="120" as="geometry" />
        </mxCell>
        <mxCell id="ZWeK69lGU3FncU__IQtJ-10" value="svelte" style="shape=note;whiteSpace=wrap;html=1;backgroundOutline=1;darkOpacity=0.05;" vertex="1" parent="1">
          <mxGeometry x="130" y="180" width="80" height="100" as="geometry" />
        </mxCell>
        <mxCell id="ZWeK69lGU3FncU__IQtJ-11" style="edgeStyle=orthogonalEdgeStyle;rounded=0;orthogonalLoop=1;jettySize=auto;html=1;entryX=0.5;entryY=1;entryDx=0;entryDy=0;entryPerimeter=0;" edge="1" parent="1" source="ximNqhCb3YHvlV8e_dy4-2" target="ZWeK69lGU3FncU__IQtJ-4">
          <mxGeometry relative="1" as="geometry" />
        </mxCell>
        <mxCell id="ZWeK69lGU3FncU__IQtJ-12" style="edgeStyle=orthogonalEdgeStyle;rounded=0;orthogonalLoop=1;jettySize=auto;html=1;entryX=0.5;entryY=1;entryDx=0;entryDy=0;entryPerimeter=0;" edge="1" parent="1" source="ximNqhCb3YHvlV8e_dy4-4" target="ZWeK69lGU3FncU__IQtJ-10">
          <mxGeometry relative="1" as="geometry" />
        </mxCell>
        <mxCell id="ZWeK69lGU3FncU__IQtJ-19" style="edgeStyle=orthogonalEdgeStyle;rounded=0;orthogonalLoop=1;jettySize=auto;html=1;" edge="1" parent="1" source="ZWeK69lGU3FncU__IQtJ-16" target="ZWeK69lGU3FncU__IQtJ-2">
          <mxGeometry relative="1" as="geometry" />
        </mxCell>
        <mxCell id="ZWeK69lGU3FncU__IQtJ-34" value="read / write" style="edgeLabel;html=1;align=center;verticalAlign=middle;resizable=0;points=[];" vertex="1" connectable="0" parent="ZWeK69lGU3FncU__IQtJ-19">
          <mxGeometry x="-0.0308" y="6" relative="1" as="geometry">
            <mxPoint as="offset" />
          </mxGeometry>
        </mxCell>
        <mxCell id="ZWeK69lGU3FncU__IQtJ-16" value="Booking Service" style="rounded=0;whiteSpace=wrap;html=1;fillColor=#f8cecc;strokeColor=#b85450;fontColor=#000000;" vertex="1" parent="1">
          <mxGeometry x="470" y="470" width="120" height="60" as="geometry" />
        </mxCell>
        <mxCell id="ZWeK69lGU3FncU__IQtJ-20" value="DB" style="shape=cylinder3;whiteSpace=wrap;html=1;boundedLbl=1;backgroundOutline=1;size=15;" vertex="1" parent="1">
          <mxGeometry x="720" y="170" width="60" height="80" as="geometry" />
        </mxCell>
        <mxCell id="ZWeK69lGU3FncU__IQtJ-23" value="GPT4all" style="rounded=0;whiteSpace=wrap;html=1;fillColor=#dae8fc;strokeColor=#6c8ebf;fontColor=#000000;" vertex="1" parent="1">
          <mxGeometry x="880" y="470" width="120" height="60" as="geometry" />
        </mxCell>
        <mxCell id="ZWeK69lGU3FncU__IQtJ-29" style="edgeStyle=orthogonalEdgeStyle;rounded=0;orthogonalLoop=1;jettySize=auto;html=1;" edge="1" parent="1" source="ZWeK69lGU3FncU__IQtJ-25" target="ZWeK69lGU3FncU__IQtJ-28">
          <mxGeometry relative="1" as="geometry" />
        </mxCell>
        <mxCell id="ZWeK69lGU3FncU__IQtJ-38" value="read / write" style="edgeLabel;html=1;align=center;verticalAlign=middle;resizable=0;points=[];" vertex="1" connectable="0" parent="ZWeK69lGU3FncU__IQtJ-29">
          <mxGeometry x="-0.28" relative="1" as="geometry">
            <mxPoint as="offset" />
          </mxGeometry>
        </mxCell>
        <mxCell id="ZWeK69lGU3FncU__IQtJ-25" value="Image Service" style="rounded=0;whiteSpace=wrap;html=1;fillColor=#f8cecc;strokeColor=#b85450;fontColor=#000000;" vertex="1" parent="1">
          <mxGeometry x="470" y="170" width="120" height="60" as="geometry" />
        </mxCell>
        <mxCell id="ZWeK69lGU3FncU__IQtJ-28" value="DB" style="shape=cylinder3;whiteSpace=wrap;html=1;boundedLbl=1;backgroundOutline=1;size=15;" vertex="1" parent="1">
          <mxGeometry x="500" y="40" width="60" height="80" as="geometry" />
        </mxCell>
        <mxCell id="ZWeK69lGU3FncU__IQtJ-39" value="Quarkus" style="shape=note;whiteSpace=wrap;html=1;backgroundOutline=1;darkOpacity=0.05;" vertex="1" parent="1">
          <mxGeometry x="880" y="160" width="80" height="100" as="geometry" />
        </mxCell>
      </root>
    </mxGraphModel>
  </diagram>
</mxfile>
